<?xml version="1.0" encoding="utf-8"?>
<!-- Generator: Adobe Illustrator 24.3.0, SVG Export Plug-In . SVG Version: 6.00 Build 0)  -->
<svg version="1.1" id="Layer_1" xmlns="http://www.w3.org/2000/svg" xmlns:xlink="http://www.w3.org/1999/xlink" x="0px" y="0px"
	 viewBox="0 0 155.9 173" style="enable-background:new 0 0 155.9 173;" xml:space="preserve">
<style type="text/css">
	.st0{fill:#336976;}
	.st1{fill:#4B7436;}
	.st2{fill:#F1A653;}
	.st3{fill:#7F3279;}
	.st4{fill-rule:evenodd;clip-rule:evenodd;fill:#7F3279;}
</style>
<g>
	<g>
		<g>
			<path class="st0" d="M17,129.3c0-0.5-0.1-0.8-0.2-1c-0.1-0.2-0.4-0.4-0.7-0.4v-0.3h4.9v0.3c-0.3,0.1-0.6,0.2-0.7,0.4
				c-0.1,0.2-0.2,0.5-0.2,1v3.5h4.4v-3.5c0-0.5-0.1-0.8-0.2-1c-0.1-0.2-0.4-0.3-0.7-0.4v-0.3h4.9v0.3c-0.3,0.1-0.6,0.2-0.7,0.4
				s-0.2,0.5-0.2,1v10.5c0,0.3,0,0.5,0,0.6c0,0.1,0.1,0.3,0.1,0.4c0.1,0.1,0.2,0.2,0.3,0.3c0.1,0.1,0.3,0.1,0.5,0.2v0.4h-4.9v-0.4
				c0.3-0.1,0.6-0.2,0.7-0.4c0.1-0.2,0.2-0.5,0.2-1v-5.8h-4.4v5.8c0,0.5,0.1,0.8,0.2,1c0.1,0.2,0.4,0.3,0.7,0.4v0.4h-4.9v-0.4
				c0.3-0.1,0.6-0.2,0.7-0.4c0.1-0.2,0.2-0.5,0.2-1V129.3z"/>
			<path class="st0" d="M38.1,138.9l0.4,0.3c-0.5,0.9-1.2,1.6-1.8,2.1c-0.7,0.5-1.4,0.7-2.3,0.7c-1.3,0-2.4-0.5-3.3-1.4
				c-0.8-1-1.3-2.2-1.3-3.8c0-1.5,0.4-2.7,1.3-3.7c0.8-1,1.9-1.5,3.1-1.5c1.2,0,2.2,0.4,2.9,1.3c0.7,0.9,1.1,2.1,1.1,3.5h-5.7
				c0,1.2,0.3,2.2,0.8,2.8c0.5,0.6,1.2,1,2.1,1c0.5,0,1-0.1,1.4-0.3C37.3,139.7,37.7,139.3,38.1,138.9z M32.5,135.5h1.7
				c0.7,0,1.2-0.1,1.4-0.2c0.2-0.1,0.3-0.4,0.3-0.8c0-0.7-0.1-1.3-0.4-1.7c-0.3-0.4-0.7-0.6-1.2-0.6c-0.6,0-1,0.3-1.2,0.8
				C32.6,133.6,32.5,134.4,32.5,135.5z"/>
			<path class="st0" d="M48.9,140.6c-0.4,0.4-0.8,0.8-1.2,1c-0.4,0.2-0.8,0.3-1.2,0.3c-0.4,0-0.7-0.1-1-0.4
				c-0.2-0.2-0.4-0.6-0.4-1.2c-0.6,0.5-1.2,0.9-1.7,1.1c-0.5,0.3-1,0.4-1.4,0.4c-0.6,0-1.2-0.2-1.6-0.7c-0.4-0.5-0.6-1-0.6-1.7
				c0-0.5,0.1-1,0.4-1.5c0.3-0.5,0.7-0.9,1.3-1.2c0.4-0.2,1-0.5,1.8-0.9c0.9-0.4,1.5-0.6,1.9-0.8v-1.2c0-0.6-0.1-1-0.3-1.3
				c-0.2-0.2-0.5-0.4-0.9-0.4c-0.3,0-0.5,0.1-0.7,0.3s-0.3,0.5-0.4,1c-0.2,0.7-0.3,1.2-0.5,1.4c-0.2,0.2-0.5,0.3-0.8,0.3
				c-0.3,0-0.6-0.1-0.9-0.4c-0.2-0.2-0.4-0.5-0.4-0.9c0-0.7,0.4-1.2,1.1-1.7c0.7-0.5,1.6-0.7,2.6-0.7c1.2,0,2.1,0.2,2.7,0.7
				c0.6,0.5,0.8,1.2,0.8,2.2v4.7c0,0.4,0,0.8,0.1,0.9c0.1,0.2,0.2,0.3,0.4,0.3c0.1,0,0.2,0,0.3,0c0.1,0,0.2-0.1,0.2-0.1L48.9,140.6z
				 M45,135.9c-1,0.5-1.8,0.9-2.2,1.4c-0.4,0.5-0.7,1-0.7,1.5c0,0.4,0.1,0.8,0.4,1c0.2,0.3,0.6,0.4,1,0.4c0.3,0,0.5-0.1,0.8-0.2
				c0.3-0.1,0.5-0.3,0.7-0.5V135.9z"/>
			<path class="st0" d="M49.7,141.7v-0.4c0.2,0,0.4-0.1,0.5-0.3c0.1-0.2,0.1-0.6,0.1-1.2v-0.2v-8.4c0-0.7-0.1-1.2-0.2-1.4
				s-0.3-0.4-0.6-0.5v-0.4c0.6-0.1,1.1-0.3,1.6-0.6c0.5-0.3,0.9-0.6,1.2-1.1h0.6v12.5c0,0.6,0,1.1,0.1,1.2c0.1,0.2,0.2,0.3,0.5,0.3
				v0.4H49.7z"/>
			<path class="st0" d="M55.8,133.3h-1.3v-0.7c0.6-0.4,1.2-0.9,1.7-1.7c0.5-0.7,1-1.7,1.5-2.9h0.7v4.2h2.1v1h-2.1v6
				c0,0.4,0.1,0.7,0.2,0.9c0.1,0.2,0.3,0.3,0.5,0.3c0.1,0,0.3,0,0.4-0.1c0.1-0.1,0.3-0.2,0.5-0.4l0.4,0.3c-0.3,0.6-0.7,1-1.1,1.3
				c-0.4,0.3-0.9,0.4-1.4,0.4c-0.7,0-1.2-0.2-1.6-0.6c-0.3-0.4-0.5-1-0.5-1.7V133.3z"/>
			<path class="st0" d="M61.4,141.7v-0.4c0.2,0,0.4-0.1,0.5-0.3c0.1-0.2,0.1-0.6,0.1-1.4v-8.4c0-0.7-0.1-1.1-0.2-1.4
				c-0.1-0.2-0.3-0.4-0.6-0.5v-0.4c0.6-0.1,1.1-0.3,1.6-0.6c0.5-0.3,0.9-0.6,1.2-1.1h0.5v6c0.8-0.6,1.5-1.1,2-1.4
				c0.5-0.3,1-0.4,1.4-0.4c0.6,0,1,0.2,1.3,0.5c0.3,0.4,0.4,0.9,0.4,1.6v6.1c0,0.6,0,1.1,0.1,1.2c0.1,0.2,0.3,0.3,0.5,0.3v0.4h-3.7
				v-0.4c0.2,0,0.4-0.1,0.5-0.3c0.1-0.2,0.1-0.6,0.1-1.2v-0.2v-4.2c0-0.7-0.1-1.2-0.3-1.6c-0.2-0.3-0.4-0.5-0.8-0.5
				c-0.2,0-0.4,0-0.6,0.1c-0.2,0.1-0.6,0.2-1,0.4v5.7c0,0.7,0,1.2,0.1,1.4c0.1,0.2,0.3,0.3,0.5,0.3v0.4H61.4z"/>
			<path class="st0" d="M75,142.2l-2.9-8.1c-0.2-0.6-0.4-1.1-0.7-1.4c-0.2-0.3-0.4-0.5-0.6-0.5v-0.4h3.9v0.4
				c-0.2,0.1-0.3,0.2-0.4,0.3c-0.1,0.1-0.1,0.2-0.1,0.4c0,0.1,0,0.2,0,0.3c0,0.1,0.1,0.2,0.1,0.4l1.8,5.4l1.3-4.2
				c0.1-0.2,0.1-0.4,0.1-0.6c0-0.2,0-0.4,0-0.7c0-0.3-0.1-0.5-0.2-0.7c-0.1-0.2-0.3-0.4-0.5-0.5v-0.4H80v0.4
				c-0.3,0.1-0.5,0.4-0.8,0.7c-0.2,0.4-0.5,0.9-0.7,1.5l-2.3,7.4c-0.5,1.6-1,2.7-1.5,3.3c-0.5,0.6-1.1,0.9-1.8,0.9
				c-0.6,0-1.1-0.2-1.4-0.5c-0.4-0.3-0.6-0.7-0.6-1.2c0-0.4,0.1-0.7,0.4-1c0.3-0.3,0.6-0.4,1-0.4c0.3,0,0.5,0.1,0.8,0.3
				c0.2,0.2,0.3,0.5,0.3,0.8c0,0,0,0,0,0.1c0,0,0,0.1,0,0.1c0,0.2,0,0.3,0.1,0.4c0,0.1,0.1,0.1,0.2,0.1c0.1,0,0.3-0.1,0.4-0.3
				c0.1-0.2,0.3-0.5,0.4-0.9L75,142.2z"/>
			<path class="st0" d="M86.4,141.7v-0.4c0.3-0.1,0.6-0.2,0.7-0.4c0.1-0.2,0.2-0.5,0.2-1v-10.5c0-0.3,0-0.5,0-0.6s-0.1-0.3-0.1-0.4
				c-0.1-0.1-0.2-0.2-0.3-0.3c-0.1-0.1-0.3-0.1-0.5-0.2v-0.4h5.1v0.4c-0.3,0.1-0.6,0.2-0.7,0.4c-0.1,0.2-0.2,0.5-0.2,1v9.1
				c0,1,0.1,1.6,0.2,1.8c0.2,0.2,0.6,0.3,1.2,0.3c1.3,0,2.2-0.2,2.9-0.5c0.7-0.3,1.3-0.9,2-1.8l0.4,0.2l-0.8,3.3H86.4z"/>
			<path class="st0" d="M101.6,131.2v8.6c0,0.6,0,1.1,0.1,1.2c0.1,0.2,0.2,0.3,0.5,0.3v0.4h-3.8v-0.4c0.2,0,0.4-0.1,0.5-0.3
				c0.1-0.2,0.1-0.6,0.1-1.4v-4.5c0-0.7-0.1-1.1-0.2-1.4c-0.1-0.2-0.3-0.4-0.6-0.5v-0.4c0.6-0.1,1.1-0.3,1.6-0.6
				c0.5-0.3,0.9-0.6,1.2-1.1H101.6z M100.3,130.3c-0.4,0-0.8-0.2-1.1-0.5c-0.3-0.3-0.4-0.7-0.4-1.1c0-0.4,0.1-0.8,0.4-1.1
				c0.3-0.3,0.7-0.4,1.1-0.4c0.4,0,0.8,0.1,1.1,0.4c0.3,0.3,0.4,0.7,0.4,1.1c0,0.4-0.1,0.8-0.4,1.1
				C101,130.2,100.7,130.3,100.3,130.3z"/>
			<path class="st0" d="M106.4,141.8l-2.5-7.8c-0.2-0.6-0.4-1-0.5-1.4s-0.4-0.5-0.6-0.6v-0.4h3.8v0.4c-0.2,0.1-0.3,0.2-0.3,0.3
				c-0.1,0.1-0.1,0.2-0.1,0.4c0,0.1,0,0.2,0,0.3c0,0.2,0.1,0.3,0.1,0.5l1.6,5.4l1.6-4.6c0.1-0.2,0.1-0.5,0.2-0.7
				c0-0.2,0.1-0.4,0.1-0.5c0-0.3-0.1-0.5-0.2-0.8c-0.1-0.2-0.3-0.3-0.6-0.4v-0.4h3v0.4c-0.2,0.1-0.5,0.3-0.6,0.5
				c-0.2,0.3-0.5,1-0.8,2.1l-2.5,7.1H106.4z"/>
			<path class="st0" d="M115.9,131.2v8.6c0,0.6,0,1.1,0.1,1.2c0.1,0.2,0.2,0.3,0.5,0.3v0.4h-3.8v-0.4c0.2,0,0.4-0.1,0.5-0.3
				c0.1-0.2,0.1-0.6,0.1-1.4v-4.5c0-0.7-0.1-1.1-0.2-1.4c-0.1-0.2-0.3-0.4-0.6-0.5v-0.4c0.6-0.1,1.1-0.3,1.6-0.6
				c0.5-0.3,0.9-0.6,1.2-1.1H115.9z M114.6,130.3c-0.4,0-0.8-0.2-1.1-0.5c-0.3-0.3-0.4-0.7-0.4-1.1c0-0.4,0.1-0.8,0.4-1.1
				c0.3-0.3,0.7-0.4,1.1-0.4c0.4,0,0.8,0.1,1.1,0.4c0.3,0.3,0.4,0.7,0.4,1.1c0,0.4-0.1,0.8-0.4,1.1
				C115.4,130.2,115.1,130.3,114.6,130.3z"/>
			<path class="st0" d="M117.8,141.7v-0.4c0.2,0,0.4-0.1,0.5-0.3c0.1-0.2,0.1-0.6,0.1-1.4v-4.2c0-0.7-0.1-1.1-0.2-1.4
				c-0.1-0.2-0.3-0.4-0.6-0.5v-0.4c0.6-0.1,1.1-0.3,1.6-0.6c0.5-0.3,0.9-0.6,1.2-1h0.5v1.8c0.8-0.6,1.5-1.1,2.1-1.4
				c0.6-0.3,1.1-0.4,1.5-0.4c0.6,0,1.1,0.2,1.3,0.6c0.2,0.4,0.4,1.3,0.4,2.7v5c0,0.6,0,1.1,0.1,1.2c0.1,0.2,0.3,0.3,0.5,0.3v0.4
				h-3.7v-0.4c0.2,0,0.4-0.1,0.5-0.3c0.1-0.2,0.1-0.6,0.1-1.4V135c0-0.7-0.1-1.1-0.2-1.3c-0.1-0.2-0.3-0.3-0.6-0.3
				c-0.2,0-0.5,0.1-0.8,0.2c-0.3,0.1-0.7,0.3-1.2,0.5v5.5c0,0.7,0,1.2,0.1,1.4c0.1,0.2,0.3,0.3,0.5,0.3v0.4H117.8z"/>
			<path class="st0" d="M130.8,138.4c-0.7-0.3-1.3-0.8-1.7-1.3c-0.4-0.6-0.6-1.2-0.6-1.9c0-1,0.4-1.9,1.2-2.6c0.8-0.7,1.8-1,3-1
				c0.5,0,1,0.1,1.4,0.2s0.8,0.4,1.2,0.7c0.4-0.4,0.7-0.7,1-0.8s0.6-0.3,0.9-0.3c0.3,0,0.6,0.1,0.8,0.3c0.2,0.2,0.3,0.5,0.3,0.8
				c0,0.3-0.1,0.5-0.2,0.6c-0.2,0.2-0.4,0.3-0.6,0.3c-0.3,0-0.5-0.1-0.8-0.3c-0.2-0.2-0.4-0.3-0.4-0.3c-0.1,0-0.1,0-0.2,0.1
				c-0.1,0-0.2,0.1-0.3,0.2c0.3,0.3,0.5,0.6,0.6,1c0.1,0.4,0.2,0.8,0.2,1.2c0,1-0.4,1.8-1.2,2.5c-0.8,0.7-1.7,1-2.9,1
				c-0.2,0-0.4,0-0.5,0s-0.3,0-0.4-0.1c-0.2,0.2-0.4,0.3-0.5,0.4c-0.1,0.1-0.1,0.2-0.1,0.3c0,0.2,0.4,0.4,1.2,0.5
				c0.3,0.1,0.5,0.1,0.7,0.1c0.1,0,0.3,0.1,0.5,0.1c1.6,0.4,2.6,0.6,3,0.9c0.4,0.3,0.8,0.5,1,0.9c0.2,0.3,0.3,0.7,0.3,1.2
				c0,0.8-0.5,1.5-1.4,2.1c-0.9,0.5-2.1,0.8-3.5,0.8c-1.4,0-2.5-0.2-3.4-0.6c-0.9-0.4-1.3-0.9-1.3-1.5c0-0.3,0.2-0.7,0.5-1
				c0.3-0.3,0.9-0.6,1.7-1c-0.6-0.1-1.1-0.3-1.4-0.5c-0.3-0.2-0.5-0.5-0.5-0.8c0-0.3,0.2-0.6,0.6-1
				C129.3,139.2,129.9,138.8,130.8,138.4z M130.9,142.1c-0.3,0.2-0.5,0.4-0.6,0.7c-0.1,0.2-0.2,0.5-0.2,0.8c0,0.5,0.3,0.9,0.8,1.2
				c0.5,0.3,1.2,0.5,2.1,0.5c0.7,0,1.3-0.1,1.8-0.4c0.5-0.3,0.7-0.6,0.7-1c0-0.5-1.2-1-3.7-1.6C131.4,142.2,131.1,142.1,130.9,142.1
				z M132.6,138c0.5,0,0.9-0.2,1.1-0.6c0.2-0.4,0.3-1.1,0.3-2c0-1.1-0.1-1.8-0.4-2.3c-0.3-0.5-0.6-0.8-1.2-0.8
				c-0.5,0-0.8,0.2-1.1,0.6c-0.2,0.4-0.4,1.1-0.4,1.9c0,1.1,0.1,1.9,0.4,2.4C131.7,137.7,132.1,138,132.6,138z"/>
		</g>
		<g>
			<path class="st0" d="M24.3,153.2c0-3.2,2.5-5.7,5.7-5.7c1.7,0,3.2,0.7,4.2,1.9l-1.1,0.9c-0.7-0.9-1.9-1.4-3.1-1.4
				c-2.4,0-4.2,2-4.2,4.4c0,2.4,1.8,4.4,4.2,4.4c1.2,0,2.4-0.6,3.1-1.4l1.1,0.9c-1,1.2-2.5,1.9-4.2,1.9
				C26.9,159,24.3,156.4,24.3,153.2z"/>
			<path class="st0" d="M36.2,153.2c0-3.2,2.5-5.7,5.6-5.7c3.2,0,5.7,2.6,5.7,5.7c0,3.2-2.5,5.7-5.7,5.7
				C38.6,159,36.2,156.4,36.2,153.2z M46,153.2c0-2.4-1.8-4.4-4.2-4.4c-2.4,0-4.2,2-4.2,4.4c0,2.4,1.8,4.4,4.2,4.4
				C44.2,157.6,46,155.6,46,153.2z"/>
			<path class="st0" d="M61.9,158.8l-1-8.5l-3.6,7.3h-1.3l-3.6-7.3l-1,8.5H50l1.4-11.2h1.3l4,8.3l4-8.3H62l1.4,11.2H61.9z"/>
			<path class="st0" d="M77.9,158.8l-1-8.5l-3.6,7.3h-1.3l-3.6-7.3l-1,8.5H66l1.4-11.2h1.3l4,8.3l4-8.3H78l1.4,11.2H77.9z"/>
			<path class="st0" d="M82.5,155v-7.3H84v7.3c0,1.8,1.2,2.6,2.6,2.6s2.6-0.8,2.6-2.6v-7.3h1.5v7.3c0,2.5-1.9,4-4.1,4
				S82.5,157.5,82.5,155z"/>
			<path class="st0" d="M102.5,147.6v11.2h-1.4l-5.2-8.5v8.5h-1.5v-11.2h1.5l5.1,8.5v-8.5H102.5z"/>
			<path class="st0" d="M106.4,147.6h1.5v11.2h-1.5V147.6z"/>
			<path class="st0" d="M118.8,149h-3.4v9.8H114V149h-3.4v-1.4h8.3V149z"/>
			<path class="st0" d="M130.1,147.6l-4.3,6v5.2h-1.5v-5.2l-4.2-6h1.8l3.2,4.6l3.3-4.6H130.1z"/>
		</g>
	</g>
	<g>
		<g>
			<g>
				<path class="st1" d="M107.8,70.1c-0.5,1.1-1.4,2.2-2.3,3c-0.4,0.3-1,0.2-1.4,0.4c-0.5,0.2-1.2,0.7-1.6,0.3
					c-1.3-0.9-1.6-3.8-1.3-5.4c0.6-3.9,2.2-6.4,3.7-9c0.5-0.9,2-2.6,3.4-2.7c0.1-0.2-0.1,0.3-0.2,0.1c-3.2-7.5-3-6.9-4.6-10.2
					c-0.5-1.1-0.7-2.2,0.7-2.1c1.9,0.2,2.6,2.6,4.9,6.7c0.1-0.1,0-0.3,0-0.4c0.5-0.6,1.4-0.1,2.1-0.1c3.6,0.2,10.5,4,11.6,6.7
					c0.6,1.5-0.4,2.4-1.5,2.7c-0.9,0.2-1.8,0-2.6-0.2c-4-1.1-7.8-5-8.8-5.9c-0.1,0.3-0.4-0.5,2.8,9.3c0.1,0,0.2-0.5,0.2-0.5
					c1-0.3,1.9,0.8,2.8,1.2c3.1,1.5,6.3,4,7.6,6.8c0.4,0.9,0.4,1.5-0.7,1.6c-2.8,0.4-6.8-4.5-8.7-6.7c0,0-0.5,0.2-0.5,0.2
					c0,0.1,0.1,0.2,0.1,0.3c0.5,2.5,0.6,5.1,0.9,7.6c0,0.1,0.1,0.3,0.2,0.5c0.5,0.1,1.3,0.1,2.7,1.3c1.9,1.6,4.9,4.2,5.6,6.6
					c0.8,3.1-1.8,2.9-4,0.6c-2.2-2.3-3.5-4.6-4-5.6c-0.3,0,0-0.2-0.2,4.7c-0.1,1.9-0.7,2.6-0.2,3c1.7,1.4,2.1,4.9,1.6,7.1
					c-0.1,0.6-2.4,3.7-3.2,3c-0.3-0.3-0.9-0.6-1.1-1.1c-0.4-1.3,0.1-2.2,0.6-6.1c0.4-3,0.8-2.6,0.8-4.3c0-2.7,0.5-7.7-0.3-10.2
					c-0.6,2.4-0.8,5.5-2.2,7.6c-0.4,0.6-1,1.1-1.6,1.3c-1.3,0.5-1.8-1.3-1.8-2.1c0-0.5-0.6-1.1-0.5-1.6c0.6-2.3,1.9-4.3,3.5-6.1
					c0.5-0.6,1.3-0.7,2.1-0.3c0-0.1-0.1-0.4-0.1-0.5c-0.7-3.5-1.2-7-2.4-10.4c0-0.5,0-0.8,0-1.1C110.2,63.3,109,67.3,107.8,70.1z"/>
			</g>
			<path class="st1" d="M51.2,41.8c-0.7,1.7-1.5,3.5-2.2,5.2C48.5,48,48,49,47.5,50.1c-0.3,0.6-0.7,1.2-1.3,0.9
				c-0.4-0.2-0.6-0.9-0.7-1.4c0-0.9,0.1-1.8,0-2.7c-0.2,0.9-0.5,1.7-0.5,2.6c-0.1,1.9,0,3.7,0,5.6c0,0.4-0.1,0.8-0.3,1.2
				c-0.1,0.2-0.5,0.5-0.7,0.5c-0.2,0-0.6-0.4-0.6-0.6c-0.1-0.6-0.1-1.3-0.2-1.9c0-0.3,0-0.5,0-0.8c-0.1,0-0.2,0-0.4,0
				c0.1,1.5,0.3,3,0.4,4.5c0.1,1.1,0.1,2.2,0,3.3c-0.1,0.7-0.4,1.2-1.2,1.2c-0.8,0-1.3-0.5-1.4-1.2c-0.2-1.4-0.2-2.7-0.5-4.1
				c0,1.1,0,2.3,0.1,3.4c0.1,1.4,0.3,2.8,0.4,4.2c0,0.6-0.1,1.3-0.4,1.8c-0.2,0.4-0.9,0.7-1.3,0.7c-0.3,0-0.8-0.6-0.9-1
				c-0.2-0.7-0.2-1.4-0.2-2.1c-0.1,0-0.2,0-0.3,0c-0.1,0.5-0.3,1.1-0.3,1.6c0.2,3.6,0.4,7.3,0.6,10.9c0.1,1.3,0,2.7-0.1,4
				c-0.1,0.9-0.7,1.5-1.6,1.7c-1,0.3-1.8,0.1-2.1-0.9c-0.6-1.8-1-3.7-1.3-5.6c-0.5-3.8-0.1-7.5,0.7-11.2c0.3-1.3,0.9-2.6,1.3-3.9
				c-0.2,0.3-0.3,0.6-0.5,0.9c-0.5,0.9-1.3,1.2-2.2,0.9c-0.9-0.3-0.9-1.1-0.8-1.8c0.2-1.7,1.1-3,2.3-4.1c1.4-1.3,2.9-2.4,4.4-3.5
				c0.5-0.4,0.9-0.8,1.4-1.1c0-0.1-0.1-0.1-0.1-0.2c-0.9,0.6-1.9,1.2-2.8,1.7c-0.7,0.4-1.4,0.7-2.1,0.2c-0.7-0.5-0.7-1.3-0.5-2.1
				c0.2-0.6,0.5-1.3,1-1.8c1.4-1.3,3-2.3,4.8-2.9c1.2-0.4,2.3-0.9,3.5-1.4c0.2-0.1,0.4-0.3,0.5-0.5c-1.2,0.4-2.5,0.7-3.7,1.1
				c-0.3,0.1-0.7,0.2-0.9,0.1c-0.4-0.1-1-0.3-1.2-0.6c-0.1-0.3,0.1-0.9,0.3-1.3c1.3-1.7,3.2-2.4,5.1-3c1.7-0.6,3.4-1.3,5.1-1.9
				c0-0.1-0.1-0.2-0.1-0.4c-0.4,0.1-0.7,0.3-1.1,0.4c-1.1,0.2-2.3,0.5-3.5,0.6c-0.8,0-1.1-0.6-0.6-1.3c0.2-0.4,0.6-0.7,1-0.9
				c1.4-0.9,3-1.3,4.6-1.5c1.1-0.1,2.1-0.5,3.1-0.8c0-0.1,0-0.2-0.1-0.3c-0.9,0.2-1.9,0.3-2.8,0.5c-0.6,0.1-1.2,0.1-1.2-0.5
				c0-0.3,0.4-0.9,0.8-1.1c1.9-0.7,3.9-0.6,5.8,0.3c0.9,0.4,1.5,1.3,1.4,2.3c-0.1,1.3-0.4,2.7-0.8,3.9c-0.5,1.4-1.2,2.8-1.8,4.1
				c-0.1,0.2-0.2,0.4-0.3,0.6c-0.3,0.6-0.7,0.9-1.4,0.7c-0.7-0.3-0.9-0.9-0.7-1.6c0.1-0.6,0.4-1.1,0.6-1.6c0.1-0.3,0.2-0.7,0.4-1.1
				C51.3,41.8,51.2,41.8,51.2,41.8z"/>
		</g>
		<g>
			<g>
				<path class="st2" d="M102.1,33.6c-3.3,2.8-7.2,3.5-11,1.8c-4.3-1.9-7.8-4.8-8.1-10.1C87.5,32.4,93,37,102.1,33.6z"/>
				<path class="st2" d="M95.3,36.9c-1.4,0-2.9-0.3-4.4-1c-5.3-2.3-8.1-5.8-8.4-10.6c0-0.2,0.1-0.5,0.4-0.5c0.2-0.1,0.5,0,0.6,0.2
					c5.4,8.5,10.9,10.9,18.5,8.1c0.2-0.1,0.5,0,0.6,0.2c0.1,0.2,0.1,0.5-0.1,0.7C100.3,35.9,97.8,36.9,95.3,36.9z M83.9,27.6
					c0.9,3.2,3.3,5.6,7.4,7.4c2.6,1.1,5.2,1.1,7.6,0.1C91.8,36.3,87.2,32.2,83.9,27.6z"/>
			</g>
			<g>
				<path class="st2" d="M100.5,30.8c-5.6,3.6-11.9-0.4-12.5-6.3c2.5,1.3,4.8,2.4,7.7,3.9c-1.3,0.2-1.9,0.3-2.5,0.4
					c-0.6,1.1,3.1,2.8,5.3,2.5C99.1,31.2,99.8,31,100.5,30.8z"/>
				<path class="st2" d="M96,32.7c-1.2,0-2.4-0.3-3.5-0.8c-2.8-1.3-4.7-4.1-5-7.3c0-0.2,0.1-0.4,0.2-0.5c0.2-0.1,0.4-0.1,0.5,0
					l7.7,3.9c0.2,0.1,0.3,0.3,0.3,0.5c0,0.2-0.2,0.4-0.4,0.4l-2,0.3c0,0.1,0.1,0.1,0.2,0.2c0.9,0.8,3.1,1.6,4.4,1.4
					c0.4-0.1,0.9-0.2,1.3-0.3c0.2-0.1,0.4-0.1,0.6-0.2c0.2-0.1,0.5,0.1,0.6,0.3c0.1,0.2,0,0.5-0.2,0.6C99.3,32.2,97.6,32.7,96,32.7z
					 M88.7,25.5c0.5,2.4,2.1,4.5,4.3,5.5c1.1,0.5,2.2,0.8,3.4,0.7c-1.5-0.4-2.9-1.1-3.5-1.9c-0.4-0.6-0.3-1-0.1-1.2
					c0.1-0.1,0.2-0.2,0.4-0.3l0.9-0.1L88.7,25.5z"/>
			</g>
			<g>
				<path class="st2" d="M96.6,41.5c-0.1-0.8,0.8-1.7,1.3-2.6c0.6,0.8,1.8,1.5,1.7,2.3c0,2.1-0.6,4.2-0.9,6.4
					C98.5,47.5,96.8,43.5,96.6,41.5z"/>
				<path class="st2" d="M98.8,47.8c0,0-0.1,0-0.1,0c-0.6-0.1-2.2-4.7-2.4-6.3c-0.1-0.6,0.4-1.3,0.8-1.9c0.2-0.3,0.4-0.5,0.5-0.8
					c0-0.1,0.1-0.1,0.2-0.1c0.1,0,0.2,0,0.2,0.1c0.2,0.2,0.4,0.5,0.7,0.7c0.6,0.6,1.1,1.1,1.1,1.8c0,1.5-0.3,3.1-0.6,4.6
					c-0.1,0.6-0.2,1.2-0.3,1.8C99,47.7,98.9,47.8,98.8,47.8z M97.9,39.4c-0.1,0.2-0.2,0.3-0.3,0.5c-0.4,0.6-0.8,1.1-0.7,1.6l0,0
					c0.2,1.6,1.2,4.2,1.7,5.4c0.1-0.4,0.1-0.7,0.2-1.1c0.3-1.5,0.5-3,0.6-4.5c0-0.4-0.5-0.9-1-1.4C98.2,39.7,98.1,39.5,97.9,39.4z
					 M96.6,41.5L96.6,41.5L96.6,41.5z"/>
			</g>
			<g>
				<path class="st2" d="M101.4,37.4c3.4,1.2,1.9,4.5,3.3,6.3C102.3,42.5,101,40.6,101.4,37.4z"/>
				<path class="st2" d="M104.6,44c0,0-0.1,0-0.1,0c-2.6-1.5-3.7-3.6-3.4-6.6c0-0.1,0-0.1,0.1-0.2c0.1,0,0.1,0,0.2,0
					c2.3,0.8,2.5,2.5,2.7,4.1c0.1,0.9,0.2,1.7,0.7,2.4c0.1,0.1,0.1,0.2,0,0.3C104.8,44,104.7,44,104.6,44z M101.5,37.7
					c-0.2,2.4,0.6,4.2,2.6,5.5c-0.2-0.6-0.3-1.2-0.4-1.8C103.5,39.9,103.3,38.5,101.5,37.7z"/>
			</g>
			<g>
				<path class="st2" d="M78,27.1c0.8-0.1,1.6,0.9,2.4,1.3c-0.7,0.4-1.4,1.2-2.1,1.1c-1.9-0.1-3.8-0.5-5.8-0.7
					C72.6,28.7,76.2,27.3,78,27.1z"/>
				<path class="st2" d="M78.4,29.9C78.4,29.9,78.4,29.9,78.4,29.9c-1.4-0.1-2.9-0.3-4.2-0.5c-0.5-0.1-1.1-0.2-1.6-0.2
					c-0.1,0-0.2-0.1-0.2-0.3c0-0.6,4.4-1.9,5.7-2l0,0c0.6,0,1.2,0.4,1.8,0.8c0.2,0.2,0.5,0.4,0.7,0.5c0.1,0,0.1,0.1,0.1,0.2
					c0,0.1,0,0.2-0.1,0.2c-0.2,0.1-0.4,0.3-0.6,0.4C79.4,29.5,78.9,29.9,78.4,29.9z M73.4,28.7c0.3,0,0.6,0.1,0.9,0.1
					c1.3,0.2,2.7,0.4,4.1,0.5c0.4,0,0.8-0.3,1.3-0.6c0.1-0.1,0.2-0.2,0.3-0.2c-0.1-0.1-0.3-0.2-0.4-0.3c-0.5-0.4-1-0.8-1.5-0.7l0,0
					C76.7,27.5,74.5,28.3,73.4,28.7z M78,27.1L78,27.1L78,27.1z"/>
			</g>
			<g>
				<path class="st2" d="M80,39.2c1.2-1.4,2.2-3,3.5-4.3c0.4-0.4,1.3-0.4,2-0.5c-0.1,0.8,0.1,1.9-0.3,2.3
					C83.7,37.8,80.1,39.4,80,39.2z"/>
				<path class="st2" d="M80,39.4C80,39.4,80,39.4,80,39.4c-0.1,0-0.2-0.1-0.3-0.1c-0.1-0.1-0.1-0.2,0-0.3c0.3-0.4,0.6-0.8,1-1.2
					c0.8-1,1.7-2.1,2.6-3.1c0.3-0.4,0.9-0.4,1.5-0.5c0.2,0,0.5-0.1,0.7-0.1c0.1,0,0.2,0,0.2,0.1c0.1,0.1,0.1,0.1,0.1,0.2
					c0,0.2,0,0.5,0,0.8c0,0.7,0,1.3-0.4,1.7C84,37.9,80.7,39.4,80,39.4z M85.3,34.7c-0.1,0-0.3,0-0.4,0.1c-0.5,0.1-1,0.1-1.2,0.3
					c-0.9,0.9-1.7,2-2.5,3c-0.2,0.2-0.3,0.4-0.5,0.7c1.1-0.4,3.3-1.4,4.4-2.3c0.2-0.2,0.2-0.8,0.2-1.3C85.3,35,85.3,34.8,85.3,34.7z
					"/>
			</g>
			<g>
				<path class="st2" d="M73.7,23.7c1.4-0.2,2.8-0.5,4.2-0.4c0.5,0,1,0.9,1.6,1.4c-0.6,0.3-1.2,0.8-1.7,0.7
					C76.3,25.2,73.6,23.9,73.7,23.7z"/>
				<path class="st2" d="M77.8,25.7c0,0-0.1,0-0.1,0c-1-0.1-4.3-1.4-4.3-2c0-0.1,0.1-0.2,0.2-0.2c0.4,0,0.8-0.1,1.2-0.2
					c1-0.2,2.1-0.3,3.1-0.3c0.5,0,0.9,0.5,1.3,1c0.2,0.2,0.3,0.4,0.5,0.5c0.1,0.1,0.1,0.1,0.1,0.2c0,0.1-0.1,0.2-0.1,0.2
					c-0.2,0.1-0.4,0.2-0.5,0.3C78.6,25.4,78.2,25.7,77.8,25.7z M74.3,23.9c0.8,0.4,2.4,1.1,3.4,1.3c0.3,0,0.7-0.2,1-0.4
					c0.1,0,0.2-0.1,0.3-0.1c-0.1-0.1-0.2-0.2-0.3-0.3c-0.3-0.4-0.6-0.8-0.9-0.8c-1,0-2,0.1-3,0.3C74.7,23.8,74.5,23.9,74.3,23.9z"/>
			</g>
			<g>
				<path class="st2" d="M78.4,33.2c1.1-0.9,2.3-1.7,3.4-2.6c0.3,0.6,0.7,1.2,1,1.8C81.5,33,78.6,33.6,78.4,33.2z"/>
				<path class="st2" d="M78.9,33.6c-0.4,0-0.7-0.1-0.8-0.2c-0.1-0.1,0-0.3,0.1-0.3l3.4-2.6c0.1,0,0.1-0.1,0.2,0
					c0.1,0,0.1,0.1,0.2,0.1l1,1.8c0,0.1,0,0.1,0,0.2c0,0.1-0.1,0.1-0.1,0.2C82.1,33,80.1,33.6,78.9,33.6z M81.7,31L79,33.1
					c0.8,0,2.4-0.4,3.4-0.8L81.7,31z M78.5,33"/>
			</g>
			<g>
				<path class="st2" d="M104.5,36.7c-0.3-0.3-0.1-1.2-0.1-1.8c0.6,0.1,1.4,0,1.7,0.3c0.9,1.1,1.6,2.3,2.3,3.5
					C108.2,38.9,105.5,37.7,104.5,36.7z"/>
				<path class="st2" d="M108.4,38.9c-0.9,0-3.4-1.4-4-2l0,0c-0.3-0.3-0.3-0.8-0.2-1.4c0-0.2,0-0.4,0-0.6c0-0.1,0-0.1,0.1-0.2
					c0.1,0,0.1-0.1,0.2-0.1c0.2,0,0.4,0,0.6,0c0.5,0,1,0,1.3,0.3c0.7,0.8,1.2,1.7,1.7,2.5c0.2,0.3,0.4,0.7,0.6,1
					c0.1,0.1,0.1,0.2,0,0.3C108.6,38.9,108.5,38.9,108.4,38.9z M104.7,36.5c0.7,0.7,2.4,1.5,3.2,1.8c-0.1-0.2-0.2-0.3-0.3-0.5
					c-0.5-0.8-1.1-1.7-1.7-2.5c-0.1-0.1-0.5-0.1-0.9-0.2c-0.1,0-0.2,0-0.3,0c0,0.1,0,0.3,0,0.4C104.6,35.9,104.6,36.4,104.7,36.5
					L104.7,36.5z"/>
			</g>
			<g>
				<path class="st2" d="M86.7,41.5c0.2-1.9,0.2-3.1,0.6-4.1c0.1-0.4,1.1-0.5,1.6-0.8c0.1,0.6,0.5,1.4,0.3,1.8
					C88.7,39.3,87.9,40.1,86.7,41.5z"/>
				<path class="st2" d="M86.7,41.8c0,0-0.1,0-0.1,0c-0.1,0-0.2-0.2-0.2-0.3c0.1-0.6,0.1-1.1,0.2-1.6c0.1-1.1,0.2-1.8,0.4-2.6
					c0.1-0.4,0.7-0.6,1.2-0.7c0.2-0.1,0.4-0.1,0.6-0.2c0.1,0,0.2,0,0.2,0c0.1,0,0.1,0.1,0.1,0.2c0,0.2,0.1,0.4,0.2,0.6
					c0.2,0.5,0.3,1,0.1,1.4c-0.4,0.7-0.9,1.2-1.5,2c-0.3,0.4-0.7,0.7-1,1.2C86.9,41.8,86.8,41.8,86.7,41.8z M88.8,36.9
					c-0.1,0-0.2,0.1-0.3,0.1c-0.3,0.1-0.8,0.3-0.9,0.4c-0.2,0.7-0.3,1.4-0.4,2.5c0,0.2,0,0.5-0.1,0.8c0.2-0.2,0.3-0.4,0.5-0.6
					c0.7-0.7,1.1-1.3,1.5-1.9c0.1-0.2,0-0.6-0.2-1C88.8,37.2,88.8,37.1,88.8,36.9z"/>
			</g>
			<g>
				<path class="st2" d="M91.6,43.3c0.2-1.9,0.2-3.1,0.5-4.2c0.1-0.4,1.1-0.6,1.6-0.8c0.1,0.6,0.6,1.3,0.4,1.8
					C93.6,41,92.8,41.8,91.6,43.3z"/>
				<path class="st2" d="M91.4,43.5c-0.1,0-0.2-0.2-0.1-0.3c0.1-0.6,0.1-1.1,0.1-1.6c0.1-1.1,0.1-1.8,0.4-2.6
					c0.1-0.4,0.6-0.6,1.2-0.8c0.2-0.1,0.4-0.1,0.6-0.2c0.1,0,0.1-0.1,0.2,0c0.1,0,0.1,0.1,0.1,0.2c0,0.2,0.1,0.4,0.2,0.6
					c0.2,0.5,0.4,1,0.2,1.4c-0.3,0.7-0.8,1.2-1.5,2c-0.3,0.4-0.6,0.8-1,1.2C91.7,43.5,91.6,43.5,91.4,43.5
					C91.5,43.5,91.5,43.5,91.4,43.5z M93.5,38.6c-0.1,0-0.2,0.1-0.3,0.1c-0.3,0.1-0.8,0.3-0.9,0.4c-0.2,0.7-0.3,1.4-0.4,2.5
					c0,0.2,0,0.5-0.1,0.8c0.2-0.2,0.3-0.4,0.5-0.6c0.6-0.8,1.1-1.3,1.4-1.9c0.1-0.2-0.1-0.6-0.2-1C93.6,38.9,93.6,38.7,93.5,38.6z"
					/>
			</g>
		</g>
		<g>
			<g>
				<path class="st1" d="M65,77.9c-6.7,0.7-11.4,2.5-11.8,6.3c1.8-0.8,3.6-1.7,5.4-2.4c0.7-0.3,1.5-0.4,2.5-0.6
					c-3,2.2-5.7,4.3-8.4,6.3c6.4,0.9,9.5-4.1,14.6-7.2c-4,9.3-13,10.3-20.6,13.8c1.5-4,2.7-8.1,4.7-11.9
					C53.4,78.2,59.4,76.4,65,77.9z"/>
				<path class="st1" d="M46.6,94.3C46.6,94.3,46.6,94.3,46.6,94.3c-0.1-0.1-0.1-0.1-0.1-0.2c0.5-1.2,0.9-2.5,1.3-3.7
					c1-2.8,2-5.6,3.3-8.2c2.1-4.1,8.1-6,13.8-4.4c0.1,0,0.1,0.1,0.1,0.1c0,0.1-0.1,0.1-0.1,0.1c-7.3,0.8-11.2,2.8-11.7,6
					c0.4-0.2,0.9-0.4,1.3-0.6c1.3-0.6,2.6-1.2,3.9-1.7c0.5-0.2,1-0.3,1.5-0.4c0.3-0.1,0.6-0.1,0.9-0.2c0.1,0,0.1,0,0.1,0.1
					c0,0.1,0,0.1,0,0.2L53,87.4c4.3,0.5,7.2-1.8,10.2-4.2c1.3-1,2.6-2.1,4-3c0,0,0.1,0,0.2,0c0,0,0.1,0.1,0,0.1
					c-3.1,7.2-9.3,9.5-15.3,11.7C50.3,92.8,48.4,93.5,46.6,94.3C46.7,94.3,46.7,94.3,46.6,94.3z M60.9,77.5c-4.2,0-7.9,1.8-9.5,4.8
					c-1.3,2.6-2.4,5.4-3.3,8.2c-0.4,1.1-0.8,2.3-1.2,3.4c1.7-0.8,3.4-1.4,5.1-2c6.1-2.3,11.8-4.4,14.9-11.2
					c-1.3,0.8-2.5,1.8-3.6,2.7c-3.1,2.5-6,4.9-10.7,4.3c-0.1,0-0.1,0-0.1-0.1s0-0.1,0-0.1l7.9-5.9c-0.1,0-0.2,0-0.4,0.1
					c-0.6,0.1-1.1,0.2-1.5,0.4c-1.3,0.5-2.6,1.1-3.9,1.7c-0.5,0.2-1,0.5-1.5,0.7c0,0-0.1,0-0.1,0c0,0-0.1-0.1-0.1-0.1
					c0.3-3.4,4.1-5.5,11.2-6.4C63.1,77.6,62,77.5,60.9,77.5z"/>
			</g>
			<g>
				<path class="st1" d="M53.6,74.6c-4-2.2-6.5-4.8-5.6-7.7c0.9,1.1,1.8,2.1,2.7,3.2c0.3,0.4,0.8,0.6,1.4,1
					c-1.2-2.4-2.3-4.6-3.4-6.8c4.3,0.9,4.8,5.5,7.1,9.1c0.2-8.1-5.2-11-9-15.6c-0.2,3.4-0.7,6.9-0.6,10.2
					C46.3,71.5,49.6,74.3,53.6,74.6z"/>
				<path class="st1" d="M53.6,74.8C53.6,74.8,53.6,74.8,53.6,74.8c-4.2-0.2-7.5-3.2-7.6-6.9c-0.1-2.3,0.1-4.8,0.3-7.1
					c0.1-1,0.2-2.1,0.2-3.1c0-0.1,0.1-0.2,0.2-0.2c0.1,0,0.2,0,0.3,0.1c0.9,1,1.8,2,2.8,3c3.2,3.2,6.4,6.5,6.2,12.8
					c0,0.1-0.1,0.2-0.2,0.2c-0.1,0-0.2,0-0.3-0.1c-0.7-1.1-1.2-2.2-1.7-3.3c-1.1-2.4-2.2-4.8-4.7-5.6l3.2,6.3c0.1,0.1,0,0.2-0.1,0.3
					c-0.1,0.1-0.2,0.1-0.3,0c-0.2-0.1-0.4-0.3-0.5-0.4c-0.3-0.2-0.6-0.4-0.9-0.7c-0.7-0.7-1.3-1.5-1.9-2.2c-0.2-0.2-0.3-0.4-0.5-0.5
					c-0.4,2.4,1.5,4.7,5.6,6.9c0.1,0.1,0.2,0.2,0.1,0.3C53.8,74.7,53.7,74.8,53.6,74.8z M47,58.3c-0.1,0.8-0.1,1.7-0.2,2.5
					c-0.2,2.3-0.4,4.7-0.3,7c0.1,3.1,2.6,5.6,5.9,6.3c-3.8-2.3-5.4-4.8-4.6-7.4c0-0.1,0.1-0.2,0.2-0.2c0.1,0,0.2,0,0.3,0.1
					c0.3,0.3,0.5,0.6,0.8,0.9c0.6,0.7,1.2,1.5,1.9,2.2c0.1,0.2,0.3,0.3,0.5,0.4l-3-5.9c0-0.1,0-0.2,0-0.3c0.1-0.1,0.2-0.1,0.3-0.1
					c3.2,0.7,4.4,3.3,5.6,6c0.4,0.8,0.7,1.6,1.2,2.4c-0.2-5.5-3-8.4-6.1-11.5C48.6,60,47.7,59.2,47,58.3z"/>
			</g>
		</g>
		<g>
			<g>
				<g>
					<path class="st0" d="M105.8,95.3c-1.2,0.5-6.6,3.3-7.8,3.7c-2.9,1.1-5.9,2.3-8.9,3.2c-6,1.8-11.3-0.4-15.9-3.8
						c-7.2-5.3-14-4.8-20.8,0.4c-0.3,0.2-0.5,0.4-0.8,0.5c-0.1,0.1-0.3,0-0.7,0c0.1-0.5,0.1-1,0.4-1.3c6.1-6.3,15.3-6.7,22-1.1
						c5.6,4.7,12,5.2,18.8,2.9c2.4-0.8,4.6-1.8,7-2.7c0.7-0.3,5.7-2.4,6.5-2.6C105.7,94.8,105.8,95.1,105.8,95.3z"/>
					<path class="st0" d="M84.9,103.4c-3.9,0-7.8-1.5-11.9-4.5c-6.9-5-13.3-4.9-20.2,0.4c-0.3,0.3-0.6,0.5-0.9,0.6
						c-0.2,0.1-0.4,0.1-0.6,0.1c-0.1,0-0.2,0-0.3,0c-0.2,0-0.3-0.1-0.4-0.2s-0.1-0.3-0.1-0.5c0-0.1,0.1-0.3,0.1-0.4
						c0.1-0.4,0.2-0.8,0.4-1.1c6.2-6.5,15.8-7,22.7-1.1c5.1,4.3,11.1,5.2,18.3,2.8c1.4-0.5,2.8-1,4.1-1.6c1-0.4,1.9-0.8,2.9-1.1
						c0.2-0.1,0.8-0.3,1.6-0.6c2.4-1,4.5-1.8,5-1.9c0.3-0.1,0.5,0.1,0.6,0.3l0.2,0.7c0.1,0.2,0,0.5-0.3,0.6c-0.3,0.2-1,0.5-1.8,0.9
						c-2.2,1.1-5.1,2.5-6,2.9l-1.6,0.6c-2.4,0.9-4.9,1.9-7.4,2.6C87.8,103.2,86.4,103.4,84.9,103.4z M63.1,94.2
						c3.5,0,6.9,1.3,10.4,3.8c5.5,4,10.5,5.2,15.5,3.7c2.5-0.7,4.9-1.7,7.3-2.6l1.6-0.6c0.6-0.2,2.6-1.2,4.3-2
						c-0.5,0.2-0.9,0.4-1.3,0.5c-0.8,0.3-1.4,0.6-1.6,0.7c-1,0.4-1.9,0.7-2.8,1.1c-1.3,0.5-2.7,1.1-4.1,1.6
						c-7.4,2.5-13.9,1.5-19.3-3c-6.5-5.5-15.5-5.1-21.3,1c-0.1,0.1-0.1,0.2-0.1,0.4c0.1-0.1,0.3-0.2,0.6-0.4
						C55.9,95.6,59.5,94.2,63.1,94.2z"/>
				</g>
				<g>
					<path class="st0" d="M103.4,102.1c-3.4,2.6-12.8,6.3-17.2,6.5c-4.9,0.2-9.7-0.8-13.7-3.9c-6.1-4.7-14.7-5.7-21.1,2.1
						c0-1.9,2.2-4.4,4.4-5.5c6.2-3.3,12-2.1,17.2,2c7.2,5.6,14.6,5,22.1,0.9C95.8,103.8,103.1,101.6,103.4,102.1z"/>
					<path class="st0" d="M85.1,109.2c-5.1,0-9.5-1.3-12.9-4c-5.3-4.1-13.8-6-20.4,2c-0.1,0.2-0.4,0.2-0.6,0.2
						c-0.2-0.1-0.3-0.3-0.3-0.5c0-2.2,2.5-4.8,4.7-6c6-3.2,12-2.5,17.8,2c6.4,5,13.5,5.2,21.5,0.8c0.5-0.3,7.4-2.5,8.5-2.1
						c0.2,0.1,0.3,0.2,0.4,0.3c0.1,0.2,0.1,0.5-0.1,0.6c-3.4,2.6-13,6.4-17.5,6.6C85.8,109.1,85.4,109.2,85.1,109.2z M62.8,100.5
						c3.1,0,6.5,1.1,10.1,3.8c3.5,2.7,8,4,13.3,3.7c3.7-0.1,11.1-2.9,15.2-5.3c-2.2,0.5-5.5,1.5-6,1.8c-8.5,4.6-15.9,4.3-22.7-0.9
						c-5.5-4.3-11-4.9-16.7-1.9c-1.3,0.7-2.5,1.7-3.2,2.8C55.4,102.2,58.9,100.5,62.8,100.5z M103.1,102.6L103.1,102.6L103.1,102.6z
						"/>
				</g>
				<g>
					<path class="st0" d="M56,110.2c0.7-2.8,5-5.5,7.9-4.9c2,0.4,4.2,1.1,5.6,2.5c6.1,5.9,12.9,7,20.6,3.7c0.3-0.1,0.6-0.1,0.9-0.2
						c0.1,0.2,0.2,0.4,0.2,0.6c-1.4,0.6-2.9,1.4-4.4,1.6c-4.7,0.8-9.5,1.9-13.9-1.3c-0.9-0.6-1.6-1.4-2.4-2.1
						c-3.9-3.8-8.6-5.2-13.2-0.8C57,109.6,56.6,109.8,56,110.2z"/>
					<path class="st0" d="M80,114.9c-2.5,0-5-0.5-7.4-2.2c-0.8-0.6-1.6-1.3-2.3-2l-0.2-0.1c-4.4-4.2-8.6-4.5-12.5-0.8
						c-0.3,0.2-0.5,0.4-0.9,0.6c-0.2,0.1-0.3,0.2-0.5,0.3c-0.2,0.1-0.4,0.1-0.6,0c-0.2-0.1-0.3-0.3-0.2-0.6c0.8-3.1,5.4-5.9,8.5-5.2
						c2.7,0.6,4.6,1.4,5.8,2.6c5.9,5.7,12.5,6.8,20,3.6c0.2-0.1,0.5-0.1,0.7-0.2c0.1,0,0.2,0,0.2,0c0.2-0.1,0.5,0.1,0.6,0.3l0.2,0.6
						c0,0.1,0,0.3,0,0.4c-0.1,0.1-0.2,0.2-0.3,0.3c-0.4,0.2-0.9,0.4-1.3,0.6c-1,0.4-2,0.9-3.1,1.1l-0.7,0.1
						C84.2,114.5,82.1,114.9,80,114.9z M70.8,109.6c0,0,0.1,0.1,0.1,0.1l0.2,0.1c0.7,0.7,1.4,1.4,2.2,1.9c2.5,1.8,5.1,2.2,7.8,2
						C77.4,113.6,74,112.2,70.8,109.6z M63.3,106.1c2,0,4.1,0.8,6.3,2.5c-0.1-0.1-0.3-0.3-0.4-0.4c-1.1-1-2.8-1.8-5.3-2.3
						c-1.8-0.4-4.4,0.7-6,2.3C59.6,106.8,61.4,106.1,63.3,106.1z"/>
				</g>
				<g>
					<path class="st0" d="M79.7,95.5c9.7,2.2,17.8-1,25.2-7.9C103.3,95.3,85.5,100.5,79.7,95.5z"/>
					<path class="st0" d="M86.5,98c-2.7,0-5.3-0.6-7.1-2.1c-0.2-0.2-0.2-0.4-0.1-0.6c0.1-0.2,0.3-0.3,0.6-0.3c9,2,16.8-0.4,24.8-7.8
						c0.2-0.2,0.4-0.2,0.6-0.1c0.2,0.1,0.3,0.3,0.2,0.6c-0.9,4.2-6.2,7.3-10.8,8.9C92.3,97.4,89.3,98,86.5,98z M83.1,96.6
						c3,0.7,7.1,0.4,11.3-1c4.3-1.4,7.7-3.7,9.2-6.1C97.1,94.9,90.3,97.3,83.1,96.6z"/>
				</g>
				<g>
					<path class="st0" d="M59.3,113.5c1.3-1.7,2.8-3,5.1-2.6c2.5,0.5,4,2.1,4.3,5.2C66.3,112.2,62.9,112.5,59.3,113.5z"/>
					<path class="st0" d="M68.6,116.6c-0.2,0-0.3-0.1-0.4-0.3c-2-3.4-4.8-3.5-8.8-2.4c-0.2,0.1-0.4,0-0.6-0.2
						c-0.1-0.2-0.1-0.4,0-0.6c1.3-1.6,2.9-3.2,5.6-2.7c2.8,0.5,4.4,2.4,4.7,5.7c0,0.2-0.1,0.5-0.4,0.5
						C68.7,116.6,68.7,116.6,68.6,116.6z M63.1,112.3c1.6,0,3.2,0.4,4.5,1.7c-0.6-1.5-1.7-2.3-3.4-2.6c-1.5-0.3-2.6,0.2-3.5,1.2
						C61.5,112.4,62.3,112.3,63.1,112.3z"/>
				</g>
			</g>
			<g>
				<path class="st0" d="M45.6,90c-2.4-3.7-6.3-3.8-9.9-4.9C39.5,83.5,43.5,85.5,45.6,90z"/>
				<path class="st0" d="M45.6,90.2c-0.1,0-0.2,0-0.2-0.1c-1.8-2.9-4.6-3.5-7.4-4.2c-0.8-0.2-1.5-0.4-2.3-0.6
					c-0.1,0-0.2-0.1-0.2-0.2c0-0.1,0.1-0.2,0.2-0.3c3.8-1.6,8,0.4,10.2,5c0.1,0.1,0,0.3-0.1,0.3C45.7,90.2,45.7,90.2,45.6,90.2z
					 M36.6,85c0.5,0.1,1,0.3,1.5,0.4c2,0.5,4,1,5.8,2.3C41.9,85.3,39.2,84.3,36.6,85z"/>
			</g>
			<g>
				<path class="st0" d="M44.4,96.4c-1.6-1.7-3-3.3-4.4-4.8c-1.2-1.2-4.2-0.3-4.1-3.3C39.7,88.3,43.4,92,44.4,96.4z"/>
				<path class="st0" d="M44.4,96.7c-0.1,0-0.1,0-0.2-0.1c-0.5-0.5-1-1.1-1.4-1.6c-1-1.1-2-2.2-3-3.2c-0.4-0.4-1-0.5-1.6-0.7
					c-1.2-0.3-2.7-0.6-2.6-2.8c0-0.1,0.1-0.3,0.3-0.3c0,0,0,0,0,0c3.9,0.1,7.8,3.7,8.8,8.3c0,0.1,0,0.2-0.1,0.3
					C44.5,96.6,44.5,96.7,44.4,96.7z M36.1,88.6c0.1,1.5,1.1,1.8,2.2,2c0.7,0.2,1.4,0.3,1.9,0.8c1,1,2,2.1,3,3.2
					c0.2,0.3,0.5,0.5,0.7,0.8C42.6,91.6,39.4,88.7,36.1,88.6z"/>
			</g>
			<g>
				<path class="st0" d="M38,94.3c3.4-0.3,5.3,2.3,5.5,7.4C41.5,99.1,39.8,96.8,38,94.3z"/>
				<path class="st0" d="M43.4,102c-0.1,0-0.2,0-0.2-0.1l-5.4-7.4c-0.1-0.1-0.1-0.2,0-0.3c0-0.1,0.1-0.1,0.2-0.2
					c1.4-0.1,2.6,0.3,3.6,1.1c1.4,1.2,2.1,3.4,2.2,6.6C43.7,101.8,43.6,101.9,43.4,102C43.5,102,43.4,102,43.4,102z M38.5,94.5
					l4.7,6.3c-0.2-2.5-0.8-4.3-2-5.4C40.4,94.9,39.5,94.5,38.5,94.5z"/>
			</g>
		</g>
		<g>
			<g>
				<path class="st2" d="M71.1,48.2c0,0,0-0.1,0-0.1c0-0.1-0.1-0.2-0.1-0.2c0-0.1-0.1-0.2-0.2-0.2c-0.2-0.1-0.4-0.2-0.6-0.2
					c0,0-0.1,0-0.1,0c-0.2,0-0.4,0-0.6,0.1c-0.5,0.1-0.9,0.3-1.4,0.6c-0.4,0.2-0.8,0.4-1.2,0.7c-0.4,0.2-0.7,0.5-1.1,0.8
					c-0.2,0.1-0.3,0.3-0.5,0.4c-0.1,0.1-0.3,0.2-0.4,0.4c-0.1,0.1-0.1,0.1-0.2,0.2c-0.1,0.1-0.3,0.2-0.4,0.3c0,0-0.1,0.1-0.1,0.1
					c-0.1,0.1-0.3,0.2-0.4,0.4c-0.1,0.1-0.3,0.3-0.4,0.4c0.3-0.6,0.6-1.1,0.9-1.7c0.4-0.7,0.7-1.5,1-2.2c0.1-0.3,0.2-0.6,0.2-1
					c0-0.3,0-0.6,0-1c0-0.4-0.1-0.7-0.3-1c-0.1-0.1-0.2-0.2-0.4-0.2c0,0-0.1,0-0.2,0c-0.1,0-0.2,0-0.3,0c-0.2,0.1-0.3,0.2-0.4,0.3
					c-0.2,0.3-0.4,0.6-0.6,0.9c-0.4,0.7-0.7,1.4-0.9,2.2c-0.3,0.7-0.5,1.5-0.7,2.2c0,0,0,0.1,0,0.1c0-0.2-0.1-0.4-0.1-0.7
					c-0.1-0.4-0.1-0.7-0.2-1.1c-0.1-0.9-0.4-1.8-0.8-2.5c-0.1-0.1-0.1-0.2-0.2-0.2c-0.1-0.1-0.1-0.2-0.2-0.3
					c-0.1-0.2-0.3-0.3-0.5-0.4c-0.1-0.1-0.2-0.1-0.4-0.2c-0.1-0.1-0.3-0.1-0.5-0.1c-0.1,0-0.1,0-0.2,0c-0.1,0-0.2,0.1-0.3,0.1
					c-0.1,0-0.2,0.1-0.3,0.2c-0.1,0.1-0.1,0.1-0.2,0.2c-0.1,0.1-0.2,0.2-0.2,0.4c0,0.1-0.1,0.3-0.1,0.4c0,0.2,0,0.3,0,0.5
					c0.1,0.4,0.1,0.8,0.2,1.2c0.1,0.3,0.2,0.7,0.4,1c0.2,0.4,0.4,0.8,0.6,1.1c0.2,0.3,0.3,0.6,0.5,0.9c-0.2-0.2-0.4-0.4-0.5-0.7
					c-0.4-0.5-0.8-0.9-1.2-1.4c-0.2-0.2-0.5-0.5-0.7-0.7c-0.4-0.4-0.9-0.7-1.4-0.9c-0.2-0.1-0.4-0.2-0.7-0.2c-0.1,0-0.1,0-0.2,0
					c-0.2,0-0.3,0-0.5,0.1c-0.2,0.1-0.4,0.3-0.4,0.5c-0.1,0.3,0,0.5,0,0.8c0,0.1,0.1,0.2,0.2,0.4c0.1,0.3,0.2,0.5,0.4,0.7
					c0.5,0.6,1.1,1.2,1.7,1.7c0.4,0.4,0.9,0.7,1.4,1c-0.2,0-0.4,0-0.6,0c-0.2,0-0.4,0-0.6,0c-0.2,0-0.5,0-0.7,0.1
					c-0.5,0.1-1,0.2-1.4,0.2c-0.5,0.1-0.9,0.2-1.4,0.3c-0.4,0.1-0.7,0.2-1.1,0.4c-0.1,0-0.2,0.1-0.2,0.2c0,0,0,0.1-0.1,0.1
					c0,0.1-0.1,0.2-0.1,0.2c0,0.1,0,0.3,0,0.4c0,0,0,0.1,0.1,0.1c0,0.1,0.1,0.2,0.2,0.3c0.1,0.1,0.1,0.1,0.2,0.2
					c0.1,0.1,0.2,0.1,0.3,0.2c0.2,0.1,0.4,0.1,0.6,0.2c0.3,0.1,0.7,0.1,1,0.1c0.1,0,0.3,0.1,0.5,0.1c0.2,0,0.3,0,0.5,0.1
					c0.3,0,0.5,0,0.8,0c0.3,0,0.5,0,0.8-0.1c0.3,0,0.5-0.1,0.8-0.2c0,0,0.1,0,0.1,0C57.1,55,57,55.1,57,55.2
					c-0.3,0.3-0.5,0.7-0.7,1.1c-0.2,0.3-0.3,0.6-0.4,0.9c0,0.2,0,0.4,0,0.5c0,0.1,0.1,0.2,0.1,0.2c0.1,0.1,0.2,0.2,0.3,0.2
					c0.1,0.1,0.3,0.1,0.5,0.1c0,0,0.1,0,0.1,0c0.2,0,0.4-0.1,0.6-0.2c0.5-0.2,0.8-0.5,1.2-0.8c0.4-0.3,0.7-0.7,1-1.1
					c0.2-0.3,0.4-0.6,0.6-0.9c0,0,0-0.1,0.1-0.1c0,0.2-0.1,0.4-0.1,0.6c0,0.2-0.1,0.5-0.1,0.7c0,0.1,0,0.3-0.1,0.4
					c0,0.1,0,0.2,0,0.3c0,0.2,0,0.5,0,0.7c0,0.2,0,0.3,0.1,0.5c0,0.1,0,0.2,0.1,0.3c0,0.2,0.1,0.4,0.2,0.6c0.1,0.3,0.3,0.6,0.4,0.9
					c0.1,0.2,0.3,0.4,0.5,0.6c0.1,0.1,0.1,0.1,0.2,0.2c0.1,0.1,0.3,0.1,0.4,0.1c0.1,0,0.2,0,0.2-0.1c0.1,0,0.1-0.1,0.2-0.1
					c0.1-0.1,0.2-0.2,0.3-0.3c0.2-0.3,0.3-0.6,0.4-0.9c0.2-0.7,0.3-1.4,0.3-2.2c0-0.2,0-0.3,0-0.5c0.2,0.3,0.3,0.6,0.5,0.9
					c0.2,0.2,0.4,0.5,0.6,0.7c0.2,0.2,0.3,0.3,0.5,0.5c0.2,0.2,0.4,0.3,0.6,0.4c0.2,0.1,0.4,0.1,0.6,0c0.1,0,0.1-0.1,0.2-0.1
					c0,0,0-0.1,0.1-0.1c0-0.1,0.1-0.2,0.1-0.3c0-0.1,0-0.2,0-0.3c0-0.1,0-0.2,0-0.4c0-0.2-0.1-0.4-0.2-0.7c-0.1-0.3-0.2-0.5-0.3-0.7
					c-0.1-0.2-0.1-0.3-0.2-0.5c-0.1-0.2-0.2-0.4-0.3-0.7c0-0.1-0.1-0.1-0.1-0.2c0.1,0.1,0.2,0.1,0.3,0.2c0.1,0.1,0.3,0.1,0.4,0.2
					c0.4,0.2,0.8,0.4,1.2,0.5c0.1,0.1,0.3,0.1,0.4,0.1c0,0,0.1,0,0.1,0c0.1,0,0.2,0,0.2,0c0.2,0,0.4-0.1,0.5-0.3
					c0.1-0.1,0.1-0.1,0.1-0.2c0.1-0.1,0.1-0.3,0.1-0.5c0-0.1,0-0.3,0-0.4c0,0,0-0.1,0-0.1c0-0.1,0-0.2,0-0.3c0-0.1,0-0.1-0.1-0.2
					c0-0.1-0.1-0.3-0.2-0.4c-0.1-0.2-0.3-0.3-0.4-0.4c-0.3-0.3-0.7-0.6-1.2-0.9c-0.3-0.2-0.7-0.4-1-0.5c0.6-0.3,1.3-0.6,1.9-0.9
					c0.4-0.2,0.9-0.5,1.3-0.7c0.2-0.1,0.4-0.3,0.7-0.5c0,0,0.1-0.1,0.1-0.1c0.2-0.2,0.4-0.3,0.5-0.5c0.2-0.2,0.3-0.4,0.4-0.6
					c0.1-0.1,0.1-0.2,0.1-0.4c0-0.1,0-0.2,0-0.2C71.2,48.4,71.2,48.3,71.1,48.2z M67.9,55.6C67.9,55.6,67.9,55.6,67.9,55.6
					C67.9,55.6,67.9,55.6,67.9,55.6L67.9,55.6z"/>
			</g>
			<g>
				<path class="st2" d="M70.8,30.8C70.8,30.8,70.8,30.8,70.8,30.8c0-0.2-0.1-0.2-0.1-0.3c0-0.1-0.1-0.1-0.2-0.2
					c-0.1-0.1-0.3-0.1-0.4-0.1c0,0,0,0-0.1,0c-0.1,0-0.3,0-0.4,0.1c-0.3,0.1-0.7,0.3-1,0.4c-0.3,0.1-0.6,0.3-0.9,0.5
					c-0.3,0.2-0.5,0.4-0.8,0.6c-0.1,0.1-0.2,0.2-0.4,0.3c-0.1,0.1-0.2,0.2-0.3,0.3c-0.1,0-0.1,0.1-0.2,0.1c-0.1,0.1-0.2,0.1-0.3,0.2
					c0,0-0.1,0.1-0.1,0.1c-0.1,0.1-0.2,0.2-0.3,0.3c-0.1,0.1-0.2,0.2-0.3,0.3c0.2-0.4,0.4-0.8,0.6-1.3c0.3-0.5,0.5-1.1,0.7-1.6
					c0.1-0.2,0.1-0.5,0.1-0.7c0-0.2,0-0.5,0-0.7c0-0.3-0.1-0.5-0.2-0.8c-0.1-0.1-0.2-0.1-0.3-0.2c0,0-0.1,0-0.1,0
					c-0.1,0-0.1,0-0.2,0c-0.1,0-0.2,0.1-0.3,0.2c-0.2,0.2-0.3,0.4-0.4,0.7c-0.3,0.5-0.5,1.1-0.7,1.6c-0.2,0.5-0.4,1.1-0.5,1.6
					c0,0,0,0,0,0.1c0-0.2,0-0.3-0.1-0.5c0-0.3-0.1-0.5-0.1-0.8c-0.1-0.6-0.3-1.3-0.6-1.9c0-0.1-0.1-0.1-0.1-0.2
					c0-0.1-0.1-0.1-0.1-0.2c-0.1-0.1-0.2-0.2-0.3-0.3c-0.1-0.1-0.2-0.1-0.3-0.2c-0.1,0-0.2-0.1-0.3-0.1c0,0-0.1,0-0.1,0
					c-0.1,0-0.1,0-0.2,0.1c-0.1,0-0.1,0.1-0.2,0.1c-0.1,0.1-0.1,0.1-0.1,0.2c-0.1,0.1-0.1,0.2-0.2,0.3c0,0.1-0.1,0.2-0.1,0.3
					c0,0.1,0,0.2,0,0.3c0,0.3,0.1,0.6,0.2,0.8c0.1,0.2,0.2,0.5,0.3,0.7c0.1,0.3,0.3,0.5,0.4,0.8c0.1,0.2,0.2,0.4,0.4,0.7
					c-0.1-0.2-0.3-0.3-0.4-0.5c-0.3-0.3-0.6-0.7-0.9-1c-0.2-0.2-0.3-0.3-0.5-0.5c-0.3-0.3-0.6-0.5-1-0.7c-0.2-0.1-0.3-0.1-0.5-0.2
					c-0.1,0-0.1,0-0.2,0c-0.1,0-0.2,0-0.4,0.1c-0.2,0.1-0.3,0.2-0.3,0.4c-0.1,0.2,0,0.4,0,0.6c0,0.1,0.1,0.2,0.1,0.3
					c0.1,0.2,0.2,0.4,0.3,0.5c0.4,0.4,0.8,0.9,1.2,1.3c0.3,0.3,0.7,0.5,1,0.8c-0.1,0-0.3,0-0.4,0c-0.2,0-0.3,0-0.5,0
					c-0.2,0-0.3,0-0.5,0.1c-0.4,0.1-0.7,0.1-1.1,0.2c-0.3,0.1-0.7,0.1-1,0.2c-0.3,0.1-0.5,0.2-0.8,0.3c-0.1,0-0.1,0.1-0.2,0.1
					c0,0,0,0.1-0.1,0.1c0,0.1,0,0.1-0.1,0.2c0,0.1,0,0.2,0,0.3c0,0,0,0.1,0,0.1c0,0.1,0.1,0.1,0.1,0.2c0.1,0,0.1,0.1,0.2,0.1
					c0.1,0.1,0.1,0.1,0.2,0.1c0.1,0.1,0.3,0.1,0.4,0.1c0.2,0,0.5,0.1,0.7,0c0.1,0,0.2,0,0.3,0.1c0.1,0,0.2,0,0.4,0
					c0.2,0,0.4,0,0.6,0c0.2,0,0.4,0,0.6-0.1c0.2,0,0.4-0.1,0.6-0.1c0,0,0.1,0,0.1,0c-0.1,0.1-0.1,0.1-0.2,0.2
					c-0.2,0.3-0.4,0.5-0.5,0.8c-0.1,0.2-0.2,0.4-0.3,0.7c0,0.1,0,0.3,0,0.4c0,0.1,0.1,0.1,0.1,0.2c0.1,0.1,0.1,0.1,0.2,0.2
					c0.1,0.1,0.2,0.1,0.3,0.1c0,0,0.1,0,0.1,0c0.2,0,0.3-0.1,0.4-0.1c0.3-0.1,0.6-0.4,0.9-0.6c0.3-0.2,0.5-0.5,0.7-0.8
					c0.2-0.2,0.3-0.4,0.4-0.7c0,0,0-0.1,0-0.1c0,0.2-0.1,0.3-0.1,0.5c0,0.2-0.1,0.4-0.1,0.5c0,0.1,0,0.2,0,0.3c0,0.1,0,0.1,0,0.2
					c0,0.2,0,0.3,0,0.5c0,0.1,0,0.2,0,0.3c0,0.1,0,0.2,0,0.2c0,0.1,0.1,0.3,0.1,0.4c0.1,0.2,0.2,0.5,0.3,0.7
					c0.1,0.2,0.2,0.3,0.4,0.5c0.1,0,0.1,0.1,0.1,0.1c0.1,0.1,0.2,0.1,0.3,0.1c0.1,0,0.1,0,0.2-0.1c0,0,0.1,0,0.1-0.1
					c0.1-0.1,0.2-0.1,0.2-0.2c0.2-0.2,0.2-0.5,0.3-0.7c0.2-0.5,0.2-1,0.2-1.6c0-0.1,0-0.2,0-0.4c0.1,0.2,0.3,0.4,0.4,0.7
					c0.1,0.2,0.3,0.3,0.4,0.5c0.1,0.1,0.2,0.2,0.3,0.4c0.1,0.1,0.3,0.3,0.5,0.3c0.1,0.1,0.3,0.1,0.4,0c0,0,0.1-0.1,0.1-0.1
					c0,0,0,0,0.1-0.1c0-0.1,0.1-0.1,0.1-0.2c0-0.1,0-0.1,0-0.2c0-0.1,0-0.2,0-0.3c0-0.2-0.1-0.3-0.1-0.5c-0.1-0.2-0.1-0.4-0.2-0.5
					C67,37.1,67,37,66.9,36.9c-0.1-0.2-0.1-0.3-0.2-0.5c0-0.1-0.1-0.1-0.1-0.2c0.1,0,0.2,0.1,0.3,0.1c0.1,0.1,0.2,0.1,0.3,0.2
					c0.3,0.2,0.6,0.3,0.9,0.4c0.1,0,0.2,0.1,0.3,0.1c0,0,0.1,0,0.1,0c0.1,0,0.1,0,0.2,0c0.1,0,0.3-0.1,0.4-0.2c0,0,0.1-0.1,0.1-0.1
					c0.1-0.1,0.1-0.2,0.1-0.3c0-0.1,0-0.2,0-0.3c0,0,0,0,0-0.1c0-0.1,0-0.1,0-0.2c0,0,0-0.1-0.1-0.1c0-0.1-0.1-0.2-0.2-0.3
					c-0.1-0.1-0.2-0.2-0.3-0.3c-0.3-0.2-0.5-0.4-0.8-0.6c-0.2-0.1-0.5-0.3-0.7-0.4c0.5-0.2,0.9-0.4,1.4-0.7c0.3-0.2,0.6-0.3,0.9-0.5
					c0.2-0.1,0.3-0.2,0.5-0.3c0,0,0.1-0.1,0.1-0.1c0.1-0.1,0.3-0.2,0.4-0.4c0.1-0.1,0.2-0.3,0.3-0.5c0-0.1,0.1-0.2,0.1-0.3
					c0-0.1,0-0.1,0-0.2C70.9,31,70.9,30.9,70.8,30.8z M68.5,36.3C68.5,36.3,68.5,36.3,68.5,36.3C68.5,36.3,68.5,36.3,68.5,36.3
					L68.5,36.3z"/>
			</g>
			<g>
				<path class="st2" d="M84.8,45.3C84.8,45.2,84.8,45.2,84.8,45.3c0-0.2,0-0.2,0-0.3c0-0.1,0-0.2-0.1-0.2c-0.1-0.1-0.2-0.2-0.3-0.3
					c0,0,0,0-0.1,0c-0.1-0.1-0.3-0.1-0.4-0.1c-0.3-0.1-0.7,0-1.1,0c-0.3,0-0.7,0.1-1,0.1c-0.3,0-0.6,0.1-0.9,0.2
					c-0.1,0-0.3,0.1-0.4,0.1c-0.1,0-0.3,0.1-0.4,0.1c-0.1,0-0.1,0-0.2,0.1c-0.1,0-0.2,0-0.3,0.1c0,0-0.1,0-0.1,0.1
					c-0.1,0-0.2,0.1-0.4,0.1c-0.1,0.1-0.3,0.1-0.4,0.2c0.4-0.3,0.7-0.6,1.1-0.9c0.4-0.4,0.9-0.7,1.3-1.2c0.2-0.2,0.3-0.4,0.4-0.6
					c0.1-0.2,0.2-0.4,0.3-0.6c0.1-0.2,0.2-0.5,0.1-0.8c0-0.1-0.1-0.2-0.2-0.3c0,0-0.1,0-0.1-0.1c-0.1,0-0.1,0-0.2,0
					c-0.1,0-0.2,0-0.4,0.1c-0.2,0.1-0.4,0.3-0.7,0.4c-0.5,0.3-0.9,0.7-1.3,1.2c-0.4,0.4-0.8,0.8-1.1,1.2c0,0,0,0,0,0
					c0-0.2,0.1-0.3,0.1-0.5c0.1-0.3,0.2-0.5,0.2-0.8c0.2-0.6,0.3-1.3,0.2-1.9c0-0.1,0-0.1,0-0.2c0-0.1,0-0.2-0.1-0.2
					c0-0.1-0.1-0.3-0.2-0.4c-0.1-0.1-0.1-0.2-0.2-0.2c-0.1-0.1-0.2-0.2-0.3-0.2c0,0-0.1,0-0.1,0c-0.1,0-0.1,0-0.2,0
					c-0.1,0-0.2,0-0.2,0.1c-0.1,0-0.1,0.1-0.2,0.1c-0.1,0-0.2,0.1-0.2,0.2c-0.1,0.1-0.1,0.2-0.2,0.2c0,0.1-0.1,0.2-0.1,0.3
					c-0.1,0.3-0.1,0.5-0.2,0.8c0,0.2,0,0.5,0,0.8c0,0.3,0,0.6,0.1,0.9c0,0.2,0,0.5,0.1,0.7c-0.1-0.2-0.1-0.4-0.2-0.6
					c-0.1-0.4-0.2-0.8-0.4-1.3c-0.1-0.2-0.2-0.4-0.3-0.6c-0.2-0.4-0.4-0.7-0.6-1c-0.1-0.1-0.2-0.3-0.4-0.3c0,0-0.1,0-0.1-0.1
					c-0.1,0-0.2-0.1-0.3-0.1c-0.2,0-0.3,0.1-0.5,0.2c-0.1,0.1-0.2,0.3-0.2,0.5c0,0.1,0,0.2,0,0.3c0,0.2,0,0.4,0.1,0.6
					c0.2,0.5,0.4,1.1,0.6,1.6c0.2,0.4,0.4,0.7,0.6,1.1c-0.1-0.1-0.2-0.1-0.4-0.2c-0.1-0.1-0.3-0.1-0.4-0.2c-0.2-0.1-0.3-0.1-0.5-0.1
					c-0.3-0.1-0.7-0.2-1-0.3c-0.3-0.1-0.6-0.1-1-0.2c-0.3,0-0.6-0.1-0.8,0c-0.1,0-0.1,0-0.2,0.1c0,0-0.1,0-0.1,0
					c0,0-0.1,0.1-0.1,0.1c-0.1,0.1-0.1,0.2-0.1,0.3c0,0,0,0.1,0,0.1c0,0.1,0,0.2,0,0.2c0,0.1,0.1,0.1,0.1,0.2c0,0.1,0.1,0.1,0.1,0.2
					c0.1,0.1,0.2,0.2,0.3,0.3c0.2,0.1,0.4,0.2,0.6,0.3c0.1,0.1,0.2,0.1,0.3,0.2c0.1,0.1,0.2,0.1,0.3,0.2c0.2,0.1,0.3,0.2,0.5,0.2
					c0.2,0.1,0.4,0.1,0.5,0.2c0.2,0,0.4,0.1,0.6,0.1c0,0,0.1,0,0.1,0c-0.1,0-0.2,0.1-0.2,0.1c-0.3,0.1-0.5,0.3-0.8,0.5
					c-0.2,0.1-0.4,0.3-0.5,0.5c-0.1,0.1-0.1,0.2-0.2,0.3c0,0.1,0,0.1,0,0.2c0,0.1,0.1,0.2,0.1,0.2c0.1,0.1,0.2,0.1,0.3,0.2
					c0,0,0.1,0,0.1,0c0.1,0.1,0.3,0.1,0.4,0.1c0.4,0,0.7-0.1,1-0.2c0.4-0.1,0.7-0.3,1-0.4c0.2-0.1,0.4-0.3,0.6-0.4
					c0,0,0.1,0,0.1-0.1c-0.1,0.1-0.2,0.2-0.3,0.4c-0.1,0.1-0.2,0.3-0.3,0.4c0,0.1-0.1,0.2-0.2,0.2c0,0.1-0.1,0.1-0.1,0.2
					c-0.1,0.1-0.1,0.3-0.2,0.4c0,0.1-0.1,0.2-0.1,0.3c0,0.1,0,0.1-0.1,0.2c0,0.1-0.1,0.3-0.1,0.4c0,0.2,0,0.5,0,0.7
					c0,0.2,0.1,0.4,0.1,0.6c0,0.1,0.1,0.1,0.1,0.2c0,0.1,0.2,0.1,0.2,0.2c0.1,0,0.1,0,0.2,0c0,0,0.1,0,0.1,0c0.1,0,0.2-0.1,0.3-0.1
					c0.2-0.1,0.4-0.3,0.5-0.5c0.4-0.4,0.6-0.9,0.8-1.3c0.1-0.1,0.1-0.2,0.1-0.3c0,0.3,0,0.5,0.1,0.8c0,0.2,0.1,0.4,0.2,0.6
					c0.1,0.2,0.1,0.3,0.2,0.5c0.1,0.2,0.2,0.3,0.3,0.5c0.1,0.1,0.2,0.2,0.4,0.2c0,0,0.1,0,0.2,0c0,0,0,0,0.1,0
					c0.1-0.1,0.1-0.1,0.2-0.2c0-0.1,0.1-0.1,0.1-0.2c0.1-0.1,0.1-0.1,0.1-0.2c0.1-0.2,0.1-0.3,0.1-0.5c0-0.2,0-0.4,0-0.6
					c0-0.1,0-0.2,0-0.4c0-0.2,0-0.3,0-0.5c0-0.1,0-0.1,0-0.2c0.1,0.1,0.1,0.2,0.2,0.2c0.1,0.1,0.1,0.2,0.2,0.3
					c0.2,0.3,0.4,0.5,0.7,0.7c0.1,0.1,0.2,0.1,0.3,0.2c0,0,0.1,0,0.1,0c0.1,0,0.1,0,0.2,0c0.1,0,0.3,0,0.4,0c0.1,0,0.1-0.1,0.1-0.1
					c0.1-0.1,0.2-0.2,0.2-0.3c0.1-0.1,0.1-0.2,0.1-0.3c0,0,0,0,0-0.1c0-0.1,0-0.1,0.1-0.2c0,0,0-0.1,0-0.1c0-0.1,0-0.2,0-0.3
					c0-0.1-0.1-0.3-0.1-0.4c-0.1-0.3-0.3-0.6-0.5-0.9c-0.2-0.2-0.3-0.4-0.5-0.6c0.5,0,1,0,1.5-0.1c0.3,0,0.7,0,1-0.1
					c0.2,0,0.4-0.1,0.6-0.1c0,0,0.1,0,0.1,0c0.2-0.1,0.3-0.1,0.5-0.2c0.2-0.1,0.3-0.2,0.4-0.3c0.1-0.1,0.1-0.1,0.2-0.2
					c0,0,0.1-0.1,0.1-0.1C84.8,45.4,84.8,45.4,84.8,45.3z M80.5,49.2C80.5,49.2,80.5,49.2,80.5,49.2C80.5,49.2,80.5,49.2,80.5,49.2
					L80.5,49.2z"/>
			</g>
		</g>
		<g>
			<path class="st3" d="M99.9,54.9c0,1.4-1.5,2.1-2.9,2.1c-1.4,0-2-0.7-2-2.1c0-1.4,0.6-2.2,2-2.2C98.4,52.7,99.9,53.5,99.9,54.9z"
				/>
			<path class="st4" d="M98.5,65.7c0.7-0.7,0.7-1.4,0.2-2.2c-0.3-0.5-1.2-0.4-1.6-0.3c-0.7,0.1-1.1,0.6-1.2,1.2
				c-0.1,0.5-0.1,1,0.3,1.4C96.8,66.4,97.8,66.3,98.5,65.7z"/>
			<path class="st3" d="M90.4,58.8c0.6-0.4,1.3-0.4,1.9-0.1c0.6,0.3,1,0.8,1.4,1.4c0.8,1.2,0.6,2.1-0.5,2.9s-2.3,0.6-3-0.5
				c-0.4-0.6-0.8-1.3-0.8-1.9C89.3,59.9,89.8,59.2,90.4,58.8z"/>
			<path class="st3" d="M97.3,71.7c0,0.9-0.1,1.8-0.7,2.4c-0.6,0.6-1.5,0.7-2.4,0.7s-1.7-0.2-2.3-0.8S91,72.6,91,71.7
				c0-0.9,0.1-1.8,0.7-2.4c0.6-0.6,1.5-0.9,2.4-0.9s1.8,0.3,2.4,0.9S97.3,70.8,97.3,71.7z"/>
			<path class="st3" d="M97.1,78.2c2.5,1.6,2.3,4.8,1,6.9s-3.9,3.1-6.4,1.5s-2.7-4.3-1.3-6.5C91.7,78,94.6,76.6,97.1,78.2z"/>
			<path class="st3" d="M86,87.4c0,1.3-0.3,2.6-1.1,3.5c-0.9,0.9-2.2,1.2-3.5,1.2s-2.5-0.6-3.3-1.4s-1.5-2-1.5-3.3s0.8-2.3,1.7-3.2
				s1.9-1.1,3.2-1.1s2.3,0.3,3.2,1.1C85.4,85.1,86,86.1,86,87.4z"/>
			<path class="st4" d="M92.8,51.4c0.8,1.5-1.5,3.1-2.6,1.7C89.1,51.4,91.9,49.8,92.8,51.4z"/>
		</g>
	</g>
</g>
</svg>
